<?xml version="1.0" encoding="UTF-8" standalone="no"?>
<svg
   xmlns:dc="http://purl.org/dc/elements/1.1/"
   xmlns:cc="http://creativecommons.org/ns#"
   xmlns:rdf="http://www.w3.org/1999/02/22-rdf-syntax-ns#"
   xmlns:svg="http://www.w3.org/2000/svg"
   xmlns="http://www.w3.org/2000/svg"
   width="1024px"
   height="1024px"
   viewBox="0 0 1024 1024"
   version="1.1"
   id="SVGRoot">
  <defs
     id="defs2145" />
  <metadata
     id="metadata2148">
    <rdf:RDF>
      <cc:Work
         rdf:about="">
        <dc:format>image/svg+xml</dc:format>
        <dc:type
           rdf:resource="http://purl.org/dc/dcmitype/StillImage" />
        <dc:title></dc:title>
      </cc:Work>
    </rdf:RDF>
  </metadata>
  <g
     id="layer2">
    <path
       fill="currentColor"
       d="M 412.7701,534.63586 101.82154,845.69517 c -14.996783,15.00213 -39.310364,15.00213 -54.305551,0 L 11.247218,809.41508 C -3.72397,794.43856 -3.7527699,770.16593 11.183218,755.15419 L 257.61822,507.47258 11.184818,259.79258 c -14.9359879,-15.01174 -14.907188,-39.28437 0.064,-54.26089 L 47.515989,169.2516 c 14.996787,-15.00213 39.310368,-15.00213 54.305551,0 L 412.7701,480.31092 c 14.99678,15.00054 14.99678,39.32277 0,54.32494 z"
       class=""
       id="path888"
       style="display:inline;opacity:1;fill:#2a2a2a;fill-opacity:1;stroke-width:1.60028" />
    <path
       fill="currentColor"
       d="m 1024,827.58634 v -51.21819 c 0,-21.21553 -17.192,-38.41365 -38.39997,-38.41365 h -486.3996 c -21.20799,0 -38.39997,17.19812 -38.39997,38.41365 v 51.21819 c 0,21.21555 17.19198,38.41366 38.39997,38.41366 h 486.3996 C 1006.808,866 1024,848.80189 1024,827.58634 Z"
       class=""
       id="path884"
       style="display:inline;opacity:1;fill:#80151a;fill-opacity:1;stroke-width:1.60028" />
  </g>
</svg>
